<svg id="Layer_1" data-name="Layer 1" xmlns="http://www.w3.org/2000/svg" viewBox="0 0 32 32"><defs><style>.cls-1{fill:#ef8506;}.cls-2{fill:#fff;}</style></defs><path class="cls-1" d="M26.94,21.34A16.78,16.78,0,0,0,27.79,16a15.59,15.59,0,0,0-3.11-9.6,9.68,9.68,0,0,0-7.62-4,8.67,8.67,0,0,0-2.53.38A8.57,8.57,0,0,0,12,2.38,9,9,0,0,0,7,3.91L7,4H7A11.61,11.61,0,0,0,4.39,6.4,15.59,15.59,0,0,0,1.28,16a15.59,15.59,0,0,0,3.11,9.6A11.31,11.31,0,0,0,7,28.05l0,0,.4.22A8.88,8.88,0,0,0,12,29.62a8.57,8.57,0,0,0,2.53-.38,8.67,8.67,0,0,0,2.53.38,9.68,9.68,0,0,0,7.62-4c.27-.35.53-.72.77-1.1h.05l2.34,0c.63,0,1.28,0,1.92,0,.22,0,1.17-.07,1.2-.07A5.6,5.6,0,0,1,26.94,21.34ZM5.24,23.58a3.93,3.93,0,0,1-1.61-3.5,3.92,3.92,0,0,1,1.61-3.49,1.1,1.1,0,0,1,.27,0h0a8.21,8.21,0,0,0,1.61,4.6,7,7,0,0,0,.24.69C7,22.89,6.29,23.62,5.51,23.62A1.1,1.1,0,0,1,5.24,23.58Zm.27-15.2c.78,0,1.48.73,1.86,1.78-.12.3-.22.6-.31.91a8.21,8.21,0,0,0-1.53,4.37h0a1.1,1.1,0,0,1-.27,0,3.92,3.92,0,0,1-1.61-3.49,3.93,3.93,0,0,1,1.61-3.5A1.1,1.1,0,0,1,5.51,8.38ZM10.22,28a4,4,0,0,1-1.83-3.62c0-.1,0-.21,0-.31a15,15,0,0,0,1,1.55,11.65,11.65,0,0,0,2.18,2.15,1.9,1.9,0,0,1-1,.29A2,2,0,0,1,10.22,28ZM8.39,7.64A4,4,0,0,1,10.22,4,2,2,0,0,1,10.65,4a1.9,1.9,0,0,1,1,.29A11.65,11.65,0,0,0,9.45,6.4,15,15,0,0,0,8.4,8C8.4,7.85,8.39,7.74,8.39,7.64Zm7.91,16.8A3.2,3.2,0,0,1,15,23.21,4.69,4.69,0,0,0,17.65,22a4.47,4.47,0,0,1,.59,2,2.23,2.23,0,0,1-1.41.53A1.88,1.88,0,0,1,16.3,24.44Zm-3.1-.08c0,.14,0,.27,0,.4,0-.13,0-.26,0-.4s0-.26,0-.39C13.19,24.1,13.2,24.23,13.2,24.36Zm0-16.72c0,.13,0,.26,0,.39,0-.13,0-.26,0-.39s0-.27,0-.4C13.19,7.37,13.2,7.5,13.2,7.64Zm3.63-.15A2.23,2.23,0,0,1,18.24,8,4.94,4.94,0,0,1,18,9.14,3.59,3.59,0,0,0,16.89,9H15.24l-.32,0A3.25,3.25,0,0,1,16.3,7.56,1.88,1.88,0,0,1,16.83,7.49Zm-6.26.89a1.62,1.62,0,0,1,1.1.52H11a4.41,4.41,0,0,0-1.87.42A1.86,1.86,0,0,1,10.57,8.38ZM11,23.23h.53a1.45,1.45,0,0,1-.95.39,1.72,1.72,0,0,1-1.31-.75A4.39,4.39,0,0,0,11,23.23ZM19.3,9.8l.06-.15a2.25,2.25,0,0,0,.08.24ZM19,20.55c0-.12,0-.23,0-.35a9.71,9.71,0,0,0,.44-1,5.21,5.21,0,0,1,.17,1.33,5.43,5.43,0,0,1-.31,1.8A5.19,5.19,0,0,1,19,20.55ZM21.89,7.49c1.56,0,2.84,1.77,2.84,4a4.5,4.5,0,0,1-1.29,3.31c-.28-.47-.58-.93-.91-1.39a15.47,15.47,0,0,0-1.9-5.47A2.23,2.23,0,0,1,21.89,7.49Zm0,13.72a9.77,9.77,0,0,0,1.61,2.57,2.34,2.34,0,0,1-1.64.73,2.23,2.23,0,0,1-1.26-.41A14.46,14.46,0,0,0,21.92,21.21Z"/><path class="cls-1" d="M17.06,29.9a9.11,9.11,0,0,1-2.53-.37,9,9,0,0,1-7.31-1l-.4-.22-.3-.17.05-.05a11.68,11.68,0,0,1-2.4-2.32A15.92,15.92,0,0,1,1,16,15.92,15.92,0,0,1,4.17,6.23,12,12,0,0,1,6.54,3.92l0,0,.3-.18.06,0h0A9.25,9.25,0,0,1,12,2.1a9.11,9.11,0,0,1,2.53.37,9.11,9.11,0,0,1,2.53-.37A10,10,0,0,1,24.9,6.23,15.92,15.92,0,0,1,28.07,16a17.1,17.1,0,0,1-.83,5.31A5.23,5.23,0,0,0,31,24.1l0,.27v.28H30.7c-.42,0-.8.06-.95.06-.42,0-.85,0-1.27,0h-.64l-2.24,0a11,11,0,0,1-.7,1A10,10,0,0,1,17.06,29.9ZM14.53,29l.08,0a8.28,8.28,0,0,0,2.45.37,9.4,9.4,0,0,0,7.4-3.91c.26-.33.51-.69.76-1.08l.07-.11.21,0,2.33,0,.64,0h.9a6.64,6.64,0,0,1-2.67-2.68l-.06-.11,0-.12A16.68,16.68,0,0,0,27.51,16a15.32,15.32,0,0,0-3.05-9.43,9.4,9.4,0,0,0-7.4-3.91A8.28,8.28,0,0,0,14.61,3l-.08,0-.08,0A8.18,8.18,0,0,0,12,2.66,8.61,8.61,0,0,0,7.2,4.14l-.08.05A11.52,11.52,0,0,0,4.6,6.57a15.38,15.38,0,0,0-3,9.43A15.38,15.38,0,0,0,4.6,25.43a11.21,11.21,0,0,0,2.54,2.39l.27.18h0l.07,0h0A8.52,8.52,0,0,0,12,29.34,8.18,8.18,0,0,0,14.45,29Zm-3.88-.64a2.12,2.12,0,0,1-.49-.06l-.06,0a4.29,4.29,0,0,1-2-3.87c0-.11,0-.22,0-.33l0-.92.46.8a13.88,13.88,0,0,0,1,1.52,11.47,11.47,0,0,0,2.14,2.1l.32.25-.35.21A2.16,2.16,0,0,1,10.65,28.31Zm-.33-.59a1.36,1.36,0,0,0,.78,0,12.16,12.16,0,0,1-1.87-1.92c-.18-.23-.35-.46-.51-.7A3.48,3.48,0,0,0,10.32,27.72Zm11.57-2.93a2.47,2.47,0,0,1-1.41-.46l-.22-.15.13-.22a14.28,14.28,0,0,0,1.27-2.84l.21-.65.3.62a9.9,9.9,0,0,0,1.55,2.5l.2.19-.2.2A2.6,2.6,0,0,1,21.89,24.79ZM21,24a1.86,1.86,0,0,0,2.12-.25A9.49,9.49,0,0,1,22,21.92,14.7,14.7,0,0,1,21,24Zm-4.18.78a2.39,2.39,0,0,1-.59-.08l-.06,0a3.51,3.51,0,0,1-1.43-1.34L14.52,23l.44-.05a4.4,4.4,0,0,0,2.51-1.14l.25-.23.17.29A4.91,4.91,0,0,1,18.52,24v.14l-.11.1A2.61,2.61,0,0,1,16.83,24.79Zm-.43-.61a1.65,1.65,0,0,0,.43.06A2,2,0,0,0,18,23.85a4.31,4.31,0,0,0-.38-1.42,5.07,5.07,0,0,1-2.1,1A2.89,2.89,0,0,0,16.4,24.18Zm-2.94.6h-.55a3,3,0,0,1,0-.42,2.88,2.88,0,0,1,0-.41h.55c0,.14,0,.28,0,.41S13.47,24.64,13.46,24.78Zm-2.89-.89A2,2,0,0,1,9,23l-.67-.86,1,.43A4,4,0,0,0,11,23h1.3l-.59.48A1.73,1.73,0,0,1,10.57,23.89Zm-5.06,0a1.29,1.29,0,0,1-.33,0h0l0,0a4.27,4.27,0,0,1-1.74-3.75A4.26,4.26,0,0,1,5.1,16.34l0,0h0a1.29,1.29,0,0,1,.33,0H5.8v.25A7.87,7.87,0,0,0,7.35,21l0,0v.05c.07.22.15.45.23.67l0,.1,0,.1C7.19,23.14,6.38,23.89,5.51,23.89Zm-.18-.57.18,0c.61,0,1.2-.57,1.56-1.5-.07-.18-.13-.37-.19-.56a8.43,8.43,0,0,1-1.61-4.39,3.78,3.78,0,0,0-1.36,3.19A3.74,3.74,0,0,0,5.33,23.32Zm14-.17-.26-.71a5.41,5.41,0,0,1-.33-1.89c0-.12,0-.24,0-.37v-.06l0-.05a7.56,7.56,0,0,0,.43-.95l.31-.82.22.85a6,6,0,0,1,.17,1.4,5.41,5.41,0,0,1-.33,1.89Zm0-2.87a2.44,2.44,0,0,0,0,.27,4.08,4.08,0,0,0,0,.61,6.08,6.08,0,0,0,0-.61c0-.12,0-.24,0-.37ZM5.51,15.72a1.29,1.29,0,0,1-.33,0h0l0,0a4.26,4.26,0,0,1-1.74-3.74A4.27,4.27,0,0,1,5.1,8.17l0,0h0a1.29,1.29,0,0,1,.33,0c.87,0,1.68.75,2.12,2l0,.1,0,.1c-.1.27-.19.56-.29.89l0,0,0,0A8.05,8.05,0,0,0,5.8,15.46v.25H5.51Zm-.18-7a3.74,3.74,0,0,0-1.42,3.24,3.8,3.8,0,0,0,1.37,3.2,8.48,8.48,0,0,1,1.53-4.18c.09-.28.17-.54.26-.78-.36-.93-1-1.5-1.56-1.5Zm18,6.51-.17-.29c-.31-.5-.6-.94-.9-1.36l0-.06v-.06A15,15,0,0,0,20.39,8l-.13-.22.22-.15a2.47,2.47,0,0,1,1.41-.46c1.72,0,3.11,1.9,3.11,4.24A4.79,4.79,0,0,1,23.63,15Zm-.58-1.92c.23.33.46.67.69,1a4.38,4.38,0,0,0,1-2.86c0-2-1.15-3.69-2.56-3.69A1.83,1.83,0,0,0,21,8,15.93,15.93,0,0,1,22.8,13.27Zm-2.88-2.75-1-.6.07-.2.06-.16.26-.71.25.71.09.24ZM8.34,10l.55-.83a2.09,2.09,0,0,1,1.68-1.06,1.83,1.83,0,0,1,1.29.59l.48.47H11a4.14,4.14,0,0,0-1.75.4Zm9.87-.51-.27-.09a3.39,3.39,0,0,0-1.05-.17H15.2l-.31,0-.43,0,.22-.38a3.56,3.56,0,0,1,1.5-1.46l.06,0a2.39,2.39,0,0,1,.59-.08,2.61,2.61,0,0,1,1.59.59l.11.1V8a5.24,5.24,0,0,1-.23,1.18ZM15.4,8.67h1.49a3.4,3.4,0,0,1,.95.13A4.9,4.9,0,0,0,18,8.15a2,2,0,0,0-1.12-.39,1.65,1.65,0,0,0-.43.06A2.85,2.85,0,0,0,15.4,8.67Zm-7.22.22,0-.92c0-.11,0-.22,0-.33a4.29,4.29,0,0,1,2-3.87l.06,0a2.12,2.12,0,0,1,.49-.06A2.16,2.16,0,0,1,11.77,4l.35.21-.32.25a11.47,11.47,0,0,0-2.14,2.1,13.88,13.88,0,0,0-1,1.52Zm2.14-4.61a3.48,3.48,0,0,0-1.6,2.65c.16-.24.33-.47.51-.7A12.16,12.16,0,0,1,11.1,4.31,1.36,1.36,0,0,0,10.32,4.28Zm3.14,3.77h-.55a2.88,2.88,0,0,1,0-.41,3,3,0,0,1,0-.42h.55c0,.14,0,.28,0,.42S13.47,7.91,13.46,8.05Z"/><path class="cls-1" d="M17.06,2.55c-5.8,0-10.5,6-10.5,13.45s4.7,13.45,10.5,13.45,10.51-6,10.51-13.45S22.87,2.55,17.06,2.55Zm4.83,4.76c1.69,0,3.06,1.85,3.06,4.14s-1.37,4.14-3.06,4.14-3.07-1.86-3.07-4.14S20.19,7.31,21.89,7.31Zm-11.32.9c1.31,0,2.38,1.66,2.38,3.71s-1.07,3.7-2.38,3.7S8.19,14,8.19,11.92,9.25,8.21,10.57,8.21Zm0,15.58c-1.32,0-2.38-1.66-2.38-3.71s1.06-3.7,2.38-3.7S13,18,13,20.08,11.88,23.79,10.57,23.79Zm5.14,4.42c-1.53,0-2.76-1.72-2.76-3.85s1.23-3.84,2.76-3.84,2.77,1.72,2.77,3.84S17.24,28.21,15.71,28.21Zm0-16.73C14.18,11.48,13,9.76,13,7.64s1.23-3.85,2.76-3.85,2.77,1.72,2.77,3.85S17.24,11.48,15.71,11.48Zm6.18,13.21c-1.7,0-3.07-1.86-3.07-4.14s1.37-4.14,3.07-4.14S25,18.27,25,20.55,23.58,24.69,21.89,24.69Z"/><path class="cls-1" d="M17.06,29.62a9.66,9.66,0,0,1-7.61-4A15.59,15.59,0,0,1,6.34,16,15.59,15.59,0,0,1,9.45,6.4a9.66,9.66,0,0,1,7.61-4,9.68,9.68,0,0,1,7.62,4A15.59,15.59,0,0,1,27.79,16a15.59,15.59,0,0,1-3.11,9.6A9.68,9.68,0,0,1,17.06,29.62Zm0-26.89C11.39,2.73,6.78,8.68,6.78,16s4.61,13.27,10.28,13.27S27.35,23.32,27.35,16,22.74,2.73,17.06,2.73ZM15.71,28.38c-1.67,0-3-1.76-3-4s1.31-4,3-4,3,1.77,3,4S17.39,28.38,15.71,28.38Zm0-7.69c-1.4,0-2.54,1.65-2.54,3.67S14.31,28,15.71,28s2.55-1.65,2.55-3.68S17.11,20.69,15.71,20.69Zm6.18,4.17c-1.81,0-3.29-1.93-3.29-4.31s1.48-4.31,3.29-4.31,3.28,1.93,3.28,4.31S23.7,24.86,21.89,24.86Zm0-8.27c-1.57,0-2.85,1.78-2.85,4s1.28,4,2.85,4,2.84-1.77,2.84-4S23.45,16.59,21.89,16.59ZM10.57,24C9.11,24,8,22.26,8,20.08s1.14-3.87,2.6-3.87,2.6,1.7,2.6,3.87S12,24,10.57,24Zm0-7.41c-1.17,0-2.16,1.62-2.16,3.53s1,3.54,2.16,3.54,2.16-1.62,2.16-3.54S11.74,16.55,10.57,16.55Zm0-.76c-1.46,0-2.6-1.7-2.6-3.87S9.11,8,10.57,8s2.6,1.7,2.6,3.88S12,15.79,10.57,15.79Zm0-7.41C9.4,8.38,8.41,10,8.41,11.92s1,3.53,2.16,3.53,2.16-1.62,2.16-3.53S11.74,8.38,10.57,8.38Zm11.32,7.38c-1.81,0-3.29-1.93-3.29-4.31s1.48-4.31,3.29-4.31,3.28,1.93,3.28,4.31S23.7,15.76,21.89,15.76Zm0-8.27c-1.57,0-2.85,1.77-2.85,4s1.28,4,2.85,4,2.84-1.78,2.84-4S23.45,7.49,21.89,7.49Zm-6.18,4.17c-1.67,0-3-1.77-3-4s1.31-4,3-4,3,1.76,3,4S17.39,11.66,15.71,11.66Zm0-7.7c-1.4,0-2.54,1.65-2.54,3.68s1.14,3.67,2.54,3.67,2.55-1.65,2.55-3.67S17.11,4,15.71,4Z"/><path class="cls-2" d="M16.5,29.26a8.58,8.58,0,0,0,1.34-.14,8.89,8.89,0,0,0,1.28-.33,9.53,9.53,0,0,0,2.25-1.15,10.54,10.54,0,0,0,1.79-1.58,13.84,13.84,0,0,0,1.38-1.82,15.32,15.32,0,0,0,1-2,15,15,0,0,0,.69-2.05,16.57,16.57,0,0,0,.41-2.1A18.7,18.7,0,0,0,26.79,16c0-.71-.05-1.42-.13-2.12a16.57,16.57,0,0,0-.41-2.1,13.77,13.77,0,0,0-.7-2,14.66,14.66,0,0,0-1-2,13.84,13.84,0,0,0-1.38-1.82,10.07,10.07,0,0,0-1.79-1.57,9.2,9.2,0,0,0-2.25-1.16,8.89,8.89,0,0,0-1.28-.33,8.58,8.58,0,0,0-1.34-.14,10.35,10.35,0,0,1,1.36.09,8.29,8.29,0,0,1,1.31.3,9.33,9.33,0,0,1,2.34,1.11,9.92,9.92,0,0,1,1.88,1.57,11.89,11.89,0,0,1,1.45,1.83,13.8,13.8,0,0,1,1.81,4.07A16.48,16.48,0,0,1,27.23,16a16.92,16.92,0,0,1-.58,4.29,14.07,14.07,0,0,1-1.81,4.07,11.89,11.89,0,0,1-1.45,1.83,9.92,9.92,0,0,1-1.88,1.57,9.69,9.69,0,0,1-2.34,1.11,8.29,8.29,0,0,1-1.31.3A10.35,10.35,0,0,1,16.5,29.26Z"/><path class="cls-1" d="M22.49,13.31A15.17,15.17,0,0,0,21,11.55a1.87,1.87,0,0,0,0-.38,7.54,7.54,0,0,0-2.46-1.82A3.42,3.42,0,0,0,16.89,9H15.24a4.65,4.65,0,0,0-.66,0H11c-3,0-5.48,3.21-5.48,7.17S8,23.23,11,23.23h3.59c2.7,0,4.94-2.54,5.39-5.89,2.39,4.28,3,7.44,5.53,7.16l2.34,0c.63,0,1.28,0,1.92,0,.22,0,1.17-.07,1.2-.07-3.17-.48-4.26-3.48-5.33-5.55A44.53,44.53,0,0,0,22.49,13.31Z"/><path class="cls-2" d="M12.85,22.6a3,3,0,0,1-.41.18H13l.33-.18Z"/><path class="cls-2" d="M15.55,19.52l-.12.25h.29a1.89,1.89,0,0,0,.11-.25Z"/><path class="cls-2" d="M15.33,20l-.13.24h.29c0-.08.09-.16.13-.24Z"/><path class="cls-2" d="M15.07,20.44l-.15.24h.31l.14-.24Z"/><path class="cls-2" d="M16,18.09l-.06.27h.27a2.68,2.68,0,0,0,.07-.27Z"/><path class="cls-2" d="M16.11,17.6c0,.09,0,.18-.05.28h.27c0-.1,0-.19.05-.28Z"/><path class="cls-2" d="M14.77,20.89l-.1.15-.07.08h.32c.06-.07.11-.15.17-.23Z"/><path class="cls-2" d="M16.18,17.11a2.7,2.7,0,0,1,0,.28h.28l0-.28Z"/><path class="cls-2" d="M15.89,18.57c0,.09-.05.18-.08.27h.28c0-.09.05-.18.08-.27Z"/><path class="cls-2" d="M15.74,19.05a2.77,2.77,0,0,0-.1.26h.28l.09-.26Z"/><path class="cls-2" d="M14.43,21.33l-.2.22h.34l.18-.22Z"/><path class="cls-2" d="M14.67,11.09l0,.05H15L14.9,11l0,0h-.32Z"/><path class="cls-2" d="M14,21.77l-.23.2h.36l.21-.2Z"/><path class="cls-2" d="M14.22,10.57l.16.17h.33l-.15-.17Z"/><path class="cls-2" d="M13.83,10.19l.18.17h.35l-.17-.17Z"/><path class="cls-2" d="M14.86,11.36l.13.19h.3a2.14,2.14,0,0,0-.13-.19Z"/><path class="cls-2" d="M15.12,11.77l.12.21h.3l-.12-.21Z"/><path class="cls-2" d="M15.35,12.19a2.4,2.4,0,0,1,.11.23h.29a2.4,2.4,0,0,0-.11-.23Z"/><path class="cls-2" d="M11.83,9.13a4.72,4.72,0,0,1,.54.13h.44c-.1,0-.3-.09-.41-.13Z"/><path class="cls-2" d="M15.56,12.63l.09.24h.29a2.44,2.44,0,0,0-.1-.24Z"/><path class="cls-2" d="M15.74,13.08c0,.08,0,.17.08.25h.28a2.41,2.41,0,0,1-.08-.25Z"/><path class="cls-2" d="M16.18,15l0,.31h.27l0-.31Z"/><path class="cls-2" d="M16.11,14.52c0,.09,0,.19,0,.29h.28c0-.1,0-.2-.05-.29Z"/><path class="cls-2" d="M15.88,13.54c0,.09,0,.18.08.27h.27a2.68,2.68,0,0,0-.07-.27Z"/><path class="cls-2" d="M16,14l.06.28h.27a1.57,1.57,0,0,0-.06-.28Z"/><path class="cls-2" d="M16.22,16.61a2.83,2.83,0,0,1,0,.29h.27a2.83,2.83,0,0,0,0-.29Z"/><path class="cls-2" d="M16.6,14.16l.52,0h.53c.35,0,.69,0,1,0-.35,0-.69,0-1,0h-.53C17,14.18,16.77,14.18,16.6,14.16Z"/><polygon class="cls-2" points="15.33 11.32 16.07 11.28 16.07 11.35 15.33 11.32"/><path class="cls-2" d="M22,20.58l.09.2h.39l-.1-.2Z"/><path class="cls-2" d="M22.26,21.05l.09.19h.39l-.09-.19Z"/><path class="cls-2" d="M22.49,21.51l.09.17H23l-.09-.17Z"/><path class="cls-2" d="M22.72,22l.09.17h.39L23.11,22Z"/><path class="cls-2" d="M21.53,19.57l.12.24H22l-.12-.24Z"/><path class="cls-2" d="M21,18.46l.15.3h.39l-.15-.3Z"/><path class="cls-2" d="M21.26,19l.14.27h.38c0-.09-.08-.18-.13-.27Z"/><path class="cls-2" d="M23.86,23.72l.16.18h.49l-.19-.18Z"/><path class="cls-2" d="M25.11,24.24a3.54,3.54,0,0,1-.39-.14h-.38a.77.77,0,0,0,.42.14Z"/><path class="cls-2" d="M21.89,20.3h.39v0l-.1-.2h-.38Z"/><path class="cls-2" d="M20.65,17.86l.18.33h.39L21,17.86Z"/><path class="cls-2" d="M23.22,22.84l.1.16h.42l-.11-.16Z"/><path class="cls-2" d="M23,22.4l.09.16h.41a.86.86,0,0,1-.1-.16Z"/><path class="cls-2" d="M23.51,23.28l.12.17h.44l-.14-.17Z"/><path class="cls-2" d="M18.62,14.55l.25.36h.41L19,14.55Z"/><path class="cls-2" d="M15.44,10.77l.19.2h.46a1.8,1.8,0,0,1-.19-.2Z"/><path class="cls-2" d="M15,10.32l.19.18h.46l-.18-.18Z"/><path class="cls-2" d="M15.9,11.25l.21.22h.44a2.09,2.09,0,0,0-.2-.22Z"/><path class="cls-2" d="M13.59,9.07l.14.12h.49l-.14-.12Z"/><path class="cls-2" d="M16.36,11.74l.22.24H17l-.22-.24Z"/><path class="cls-2" d="M14.51,9.88c.06.06.12.11.17.17h.47L15,9.88Z"/><path class="cls-2" d="M14.05,9.47l.16.14h.48l-.16-.14Z"/><path class="cls-2" d="M18.18,13.94l.24.34h.42c-.08-.11-.16-.23-.25-.34Z"/><path class="cls-2" d="M19.48,15.85c.09.14.17.28.26.41h.4c-.09-.13-.17-.27-.26-.41Z"/><path class="cls-2" d="M19.9,16.54l.24.4h.4l-.24-.4Z"/><path class="cls-2" d="M19.05,15.19l.25.38h.41l-.25-.38Z"/><path class="cls-2" d="M17.28,12.8l.23.28h.43l-.23-.28Z"/><path class="cls-2" d="M20.3,17.22l.2.36h.39c-.06-.12-.13-.24-.2-.36Z"/><path class="cls-2" d="M16.82,12.26l.23.26h.43l-.22-.26Z"/><path class="cls-2" d="M17.73,13.36l.24.31h.42l-.24-.31Z"/><path class="cls-2" d="M25.87,20.58l.12.2h.4l-.12-.2Z"/><path class="cls-2" d="M25.29,19.57l.13.24h.4l-.14-.24Z"/><path class="cls-2" d="M25.58,20.08l.12.22h.4L26,20.08Z"/><path class="cls-2" d="M24.68,18.46c.06.1.11.2.16.3h.39l-.15-.3Z"/><path class="cls-2" d="M24.37,17.86c.05.11.11.22.17.33h.39c-.06-.11-.12-.22-.17-.33Z"/><path class="cls-2" d="M25,19c.05.09.1.18.14.27h.4L25.38,19Z"/><path class="cls-2" d="M23.67,16.54c.08.13.15.27.22.4h.39c-.07-.13-.14-.27-.22-.4Z"/><path class="cls-2" d="M27.5,23h.34l.05,0a.71.71,0,0,0-.1-.14h-.42A1.83,1.83,0,0,0,27.5,23Z"/><path class="cls-2" d="M27.05,22.4l.12.16h.42l-.12-.16Z"/><path class="cls-2" d="M24.2,17.53l0,0h.39l-.08-.16-.11-.2H24Z"/><path class="cls-2" d="M26.45,21.51l.11.17H27a1,1,0,0,1-.11-.17Z"/><path class="cls-2" d="M26.75,22c0,.05.07.11.11.17h.41a1,1,0,0,0-.11-.17Z"/><path class="cls-2" d="M26.16,21.05l.11.19h.41l-.12-.19Z"/><path class="cls-2" d="M21.31,12.8l.23.28H22c-.07-.09-.14-.19-.22-.28Z"/><path class="cls-2" d="M19.64,10.5h-.47l-.23-.18h.47Z"/><path class="cls-2" d="M20.12,11h-.44l-.2-.2h.41Z"/><path class="cls-2" d="M19,10h-.45l-.23-.16h.45Z"/><path class="cls-2" d="M20.56,11.47h-.47a1.84,1.84,0,0,0-.17-.22h.41Z"/><path class="cls-2" d="M18.56,9.61H18l-.08,0h0l-.19-.11h.53Z"/><path class="cls-2" d="M18,9.26h-.54l-.28-.12h.47Z"/><path class="cls-2" d="M20.86,12.26l.22.26h.44l-.22-.26Z"/><path class="cls-2" d="M22.55,14.55c.07.12.14.24.22.36h.39L23,14.55Z"/><path class="cls-2" d="M22.93,15.19l.22.38h.39l-.22-.38Z"/><path class="cls-2" d="M20.37,11.74l.23.24h.45l-.22-.24Z"/><path class="cls-2" d="M22.15,13.94a4,4,0,0,1,.22.34h.41a4,4,0,0,0-.22-.34Z"/><path class="cls-2" d="M23.3,15.85l.23.41h.39l-.23-.41Z"/><path class="cls-2" d="M21.74,13.36l.23.31h.41a3.46,3.46,0,0,0-.22-.31Z"/><path class="cls-2" d="M17.08,21.91l-.25.21h.37l.23-.2Z"/><path class="cls-2" d="M17.52,21.49a2.28,2.28,0,0,1-.22.22h.34l.2-.21Z"/><path class="cls-2" d="M18.22,20.62c-.06.08-.11.16-.17.23h.31l.16-.23Z"/><path class="cls-2" d="M17.89,21.06l-.18.22H18l.18-.22Z"/><path class="cls-2" d="M16.33,22.73c-.11.06-.27.12-.39.17h-.38a1.65,1.65,0,0,0,.42-.18Z"/><path class="cls-2" d="M16.94,22.33l-.27.19h-.32l.25-.19Z"/><path class="cls-2" d="M19.44,17.8c0,.1-.05.19-.07.28h.27a2.68,2.68,0,0,0,.07-.27Z"/><path class="cls-2" d="M19.31,18.29a2.76,2.76,0,0,0-.08.27h.27a2,2,0,0,0,.08-.26Z"/><path class="cls-2" d="M18.5,20.17c0,.08-.09.16-.14.24h.29l.15-.24Z"/><path class="cls-2" d="M18.75,19.71c0,.08-.08.17-.13.25h.29l.13-.25Z"/><path class="cls-2" d="M19,19.24l-.12.26h.29l.11-.26Z"/><path class="cls-2" d="M19.15,18.77l-.09.26h.28l.09-.26Z"/><path class="cls-2" d="M11,22.72a4.24,4.24,0,0,1-3.32-1.85,7.9,7.9,0,0,1-1.52-4.8,7.91,7.91,0,0,1,1.52-4.81A4.24,4.24,0,0,1,11,9.41a4.24,4.24,0,0,1,3.31,1.85,7.91,7.91,0,0,1,1.52,4.81,7.9,7.9,0,0,1-1.52,4.8A4.24,4.24,0,0,1,11,22.72Zm0-13.2a4.1,4.1,0,0,0-3.2,1.8A7.84,7.84,0,0,0,6.3,16.07a7.83,7.83,0,0,0,1.49,4.74,4.1,4.1,0,0,0,3.2,1.8,4.1,4.1,0,0,0,3.19-1.8,7.83,7.83,0,0,0,1.49-4.74,7.84,7.84,0,0,0-1.49-4.75A4.1,4.1,0,0,0,11,9.52Z"/><path class="cls-2" d="M11,22.15a3.54,3.54,0,0,1-2.71-1.57,7.49,7.49,0,0,1-1.4-4.51,7.45,7.45,0,0,1,1.4-4.51A3.52,3.52,0,0,1,11,10a3.53,3.53,0,0,1,2.7,1.57,7.5,7.5,0,0,1,1.4,4.52,7.49,7.49,0,0,1-1.4,4.51A3.53,3.53,0,0,1,11,22.15Zm0-12.06a3.36,3.36,0,0,0-2.58,1.52A7.4,7.4,0,0,0,7,16.07a7.37,7.37,0,0,0,1.39,4.45A3.36,3.36,0,0,0,11,22a3.36,3.36,0,0,0,2.57-1.52A7.3,7.3,0,0,0,15,16.07a7.33,7.33,0,0,0-1.39-4.46A3.36,3.36,0,0,0,11,10.09Z"/><path class="cls-2" d="M11,21.58a2.83,2.83,0,0,1-2.09-1.3,7,7,0,0,1-1.3-4.21,7,7,0,0,1,1.3-4.22A2.83,2.83,0,0,1,11,10.55a2.83,2.83,0,0,1,2.08,1.3,7,7,0,0,1,1.3,4.22,7,7,0,0,1-1.3,4.21A2.83,2.83,0,0,1,11,21.58Zm0-10.92a2.71,2.71,0,0,0-2,1.25,6.84,6.84,0,0,0-1.29,4.16A6.84,6.84,0,0,0,9,20.22a2.71,2.71,0,0,0,2,1.25,2.71,2.71,0,0,0,1.95-1.25,6.84,6.84,0,0,0,1.29-4.15,6.84,6.84,0,0,0-1.29-4.16A2.71,2.71,0,0,0,11,10.66Z"/><path class="cls-2" d="M11,21a2.2,2.2,0,0,1-1.47-1,6.52,6.52,0,0,1-1.2-3.92,6.53,6.53,0,0,1,1.2-3.93,2.2,2.2,0,0,1,1.47-1,2.2,2.2,0,0,1,1.46,1,6.46,6.46,0,0,1,1.2,3.93A6.45,6.45,0,0,1,12.45,20,2.2,2.2,0,0,1,11,21Zm0-9.78c-.23,0-.76.21-1.34,1a6.34,6.34,0,0,0-1.18,3.87,6.33,6.33,0,0,0,1.18,3.86c.58.76,1.11,1,1.34,1s.75-.21,1.34-1a6.39,6.39,0,0,0,1.17-3.86,6.4,6.4,0,0,0-1.17-3.87C11.74,11.44,11.21,11.23,11,11.23Z"/><path class="cls-2" d="M16.83,17.3l.57,0H18c.38,0,.77,0,1.15,0-.38,0-.77,0-1.15,0H17.4A5.44,5.44,0,0,1,16.83,17.3Z"/><path class="cls-1" d="M12.51,2.55C6.74,2.1,2,8.57,2,16S6.74,29.91,12.51,29.45c5.61-.46,9.88-6,9.88-13.45S18.24,3,12.51,2.55Zm4.82,4.76c1.69,0,3.06,1.85,3.06,4.14S19,15.59,17.33,15.59s-3.06-1.86-3.06-4.14S15.64,7.31,17.33,7.31ZM6,8.21c1.32,0,2.38,1.66,2.38,3.71S7.33,15.62,6,15.62,3.63,14,3.63,11.92,4.7,8.21,6,8.21ZM6,23.79c-1.31,0-2.38-1.66-2.38-3.71S4.7,16.38,6,16.38,8.39,18,8.39,20.08,7.33,23.79,6,23.79Zm5.15,4.42c-1.53,0-2.77-1.72-2.77-3.85s1.24-3.84,2.77-3.84,2.76,1.72,2.76,3.84S12.68,28.21,11.16,28.21Zm0-16.73c-1.53,0-2.77-1.72-2.77-3.84s1.24-3.85,2.77-3.85,2.76,1.72,2.76,3.85S12.68,11.48,11.16,11.48Zm6.17,13.21c-1.69,0-3.06-1.86-3.06-4.14s1.37-4.14,3.06-4.14,3.06,1.86,3.06,4.14S19,24.69,17.33,24.69Z"/><path class="cls-2" d="M12,2.55C6.2,2.55,1.5,8.57,1.5,16S6.2,29.45,12,29.45s10.51-6,10.51-13.45S17.81,2.55,12,2.55Zm4.83,4.76c1.69,0,3.06,1.85,3.06,4.14s-1.37,4.14-3.06,4.14-3.07-1.86-3.07-4.14S15.13,7.31,16.83,7.31Zm-11.32.9c1.31,0,2.37,1.66,2.37,3.71s-1.06,3.7-2.37,3.7S3.13,14,3.13,11.92,4.19,8.21,5.51,8.21Zm0,15.58c-1.32,0-2.38-1.66-2.38-3.71s1.06-3.7,2.38-3.7S7.88,18,7.88,20.08,6.82,23.79,5.51,23.79Zm5.14,4.42c-1.53,0-2.77-1.72-2.77-3.85s1.24-3.84,2.77-3.84,2.77,1.72,2.77,3.84S12.18,28.21,10.65,28.21Zm0-16.73c-1.53,0-2.77-1.72-2.77-3.84s1.24-3.85,2.77-3.85,2.77,1.72,2.77,3.85S12.18,11.48,10.65,11.48Zm6.18,13.21c-1.7,0-3.07-1.86-3.07-4.14s1.37-4.14,3.07-4.14,3.06,1.86,3.06,4.14S18.52,24.69,16.83,24.69Z"/><path class="cls-1" d="M12,29.62a9.66,9.66,0,0,1-7.61-4A15.59,15.59,0,0,1,1.28,16,15.59,15.59,0,0,1,4.39,6.4a9.66,9.66,0,0,1,7.61-4,9.68,9.68,0,0,1,7.62,4A15.59,15.59,0,0,1,22.73,16a15.59,15.59,0,0,1-3.11,9.6A9.68,9.68,0,0,1,12,29.62ZM12,2.73C6.33,2.73,1.72,8.68,1.72,16S6.33,29.27,12,29.27,22.29,23.32,22.29,16,17.68,2.73,12,2.73ZM10.65,28.38c-1.67,0-3-1.76-3-4s1.32-4,3-4,3,1.77,3,4S12.33,28.38,10.65,28.38Zm0-7.69c-1.4,0-2.54,1.65-2.54,3.67S9.25,28,10.65,28s2.55-1.65,2.55-3.68S12.05,20.69,10.65,20.69Zm6.18,4.17c-1.82,0-3.29-1.93-3.29-4.31s1.47-4.31,3.29-4.31,3.28,1.93,3.28,4.31S18.64,24.86,16.83,24.86Zm0-8.27c-1.57,0-2.85,1.78-2.85,4s1.28,4,2.85,4,2.84-1.77,2.84-4S18.39,16.59,16.83,16.59ZM5.51,24c-1.46,0-2.6-1.7-2.6-3.88s1.14-3.87,2.6-3.87,2.6,1.7,2.6,3.87S7,24,5.51,24Zm0-7.41c-1.17,0-2.16,1.62-2.16,3.53s1,3.54,2.16,3.54S7.66,22,7.66,20.08,6.68,16.55,5.51,16.55Zm0-.76c-1.46,0-2.6-1.7-2.6-3.87S4.05,8,5.51,8s2.6,1.7,2.6,3.88S7,15.79,5.51,15.79Zm0-7.41c-1.17,0-2.16,1.62-2.16,3.54s1,3.53,2.16,3.53,2.15-1.62,2.15-3.53S6.68,8.38,5.51,8.38Zm11.32,7.38c-1.82,0-3.29-1.93-3.29-4.31S15,7.14,16.83,7.14s3.28,1.93,3.28,4.31S18.64,15.76,16.83,15.76Zm0-8.27c-1.57,0-2.85,1.77-2.85,4s1.28,4,2.85,4,2.84-1.78,2.84-4S18.39,7.49,16.83,7.49Zm-6.18,4.17c-1.67,0-3-1.77-3-4s1.32-4,3-4,3,1.76,3,4S12.33,11.66,10.65,11.66Zm0-7.7C9.25,4,8.11,5.61,8.11,7.64s1.14,3.67,2.54,3.67S13.2,9.66,13.2,7.64,12.05,4,10.65,4Z"/><path class="cls-1" d="M7.27,27.74a9.88,9.88,0,0,0,1.44.65,9.25,9.25,0,0,0,1.59.4,9.08,9.08,0,0,0,1.65.09,7.94,7.94,0,0,0,1.62-.26,8.68,8.68,0,0,0,2.85-1.38,12.25,12.25,0,0,0,1.16-1c.19-.17.36-.35.54-.52s.35-.36.54-.54a8.64,8.64,0,0,1-2,2.21,8.54,8.54,0,0,1-2.92,1.52,8.43,8.43,0,0,1-3.5.24A9.06,9.06,0,0,1,7,28.07Z"/><ellipse class="cls-1" cx="10.65" cy="13.19" rx="0.65" ry="0.92"/><path class="cls-1" d="M10.65,14.19c-.42,0-.76-.44-.76-1s.34-1,.76-1,.76.44.76,1S11.08,14.19,10.65,14.19Zm0-1.84c-.3,0-.55.39-.55.84s.25.84.55.84.55-.39.55-.84S11,12.35,10.65,12.35Z"/><path class="cls-2" d="M10.8,13.93a.38.38,0,0,1-.29-.07.69.69,0,0,1-.19-.19.89.89,0,0,1,0-1,.69.69,0,0,1,.19-.19.38.38,0,0,1,.29-.07.37.37,0,0,0-.23.12.62.62,0,0,0-.12.19,1,1,0,0,0-.09.43,1.07,1.07,0,0,0,.09.43.62.62,0,0,0,.12.19A.37.37,0,0,0,10.8,13.93Z"/><path class="cls-1" d="M11.31,18.85c0,.5-.3.92-.66.92s-.65-.42-.65-.92.29-.92.65-.92S11.31,18.34,11.31,18.85Z"/><path class="cls-1" d="M10.65,19.85c-.42,0-.76-.44-.76-1s.34-1,.76-1,.76.44.76,1S11.08,19.85,10.65,19.85Zm0-1.84c-.3,0-.55.38-.55.84s.25.83.55.83.55-.38.55-.83S11,18,10.65,18Z"/><path class="cls-2" d="M10.8,19.59a.42.42,0,0,1-.29-.07.72.72,0,0,1-.19-.2.88.88,0,0,1,0-.95.89.89,0,0,1,.19-.2.48.48,0,0,1,.29-.07.42.42,0,0,0-.23.12,1,1,0,0,0-.12.19,1.12,1.12,0,0,0-.09.44,1.11,1.11,0,0,0,.09.43.76.76,0,0,0,.12.19A.42.42,0,0,0,10.8,19.59Z"/><path class="cls-1" d="M10.65,17.67c-.71,0-1.27-.73-1.27-1.67s.56-1.67,1.27-1.67,1.27.73,1.27,1.67S11.36,17.67,10.65,17.67Zm0-3.05c-.49,0-.91.63-.91,1.38s.42,1.38.91,1.38.91-.63.91-1.38S11.14,14.62,10.65,14.62Z"/><path class="cls-1" d="M11,17.53a.91.91,0,0,1-.62-.14A1.56,1.56,0,0,1,10,17a1.89,1.89,0,0,1,0-2,1.56,1.56,0,0,1,.41-.4.91.91,0,0,1,.62-.14.77.77,0,0,0-.46.26,1.36,1.36,0,0,0-.25.39,2.5,2.5,0,0,0,0,1.76,1.36,1.36,0,0,0,.25.39A.77.77,0,0,0,11,17.53Z"/><path class="cls-1" d="M13.4,14.47c0,.5-.29.91-.65.91s-.65-.41-.65-.91.29-.91.65-.91S13.4,14,13.4,14.47Z"/><path class="cls-1" d="M12.75,15.46c-.42,0-.75-.43-.75-1s.33-1,.75-1,.75.43.75,1S13.17,15.46,12.75,15.46Zm0-1.82c-.29,0-.54.38-.54.83s.25.83.54.83.55-.38.55-.83S13.05,13.64,12.75,13.64Z"/><path class="cls-2" d="M13,15.21a.48.48,0,0,1-.29-.07.89.89,0,0,1-.19-.2.8.8,0,0,1-.13-.47.82.82,0,0,1,.13-.47.89.89,0,0,1,.19-.2.48.48,0,0,1,.29-.07.5.5,0,0,0-.23.12,1,1,0,0,0-.12.19,1.11,1.11,0,0,0-.09.43,1.07,1.07,0,0,0,.09.43.76.76,0,0,0,.12.19A.42.42,0,0,0,13,15.21Z"/><path class="cls-1" d="M13.4,17.41c0,.51-.29.91-.65.91s-.65-.4-.65-.91.29-.91.65-.91S13.4,16.91,13.4,17.41Z"/><path class="cls-1" d="M12.75,18.41c-.42,0-.75-.44-.75-1s.33-1,.75-1,.75.44.75,1S13.17,18.41,12.75,18.41Zm0-1.82c-.29,0-.54.37-.54.82s.25.83.54.83.55-.38.55-.83S13.05,16.59,12.75,16.59Z"/><path class="cls-2" d="M13,18.15a.48.48,0,0,1-.29-.07.61.61,0,0,1-.19-.2.8.8,0,0,1-.13-.47.82.82,0,0,1,.13-.47.69.69,0,0,1,.19-.19.38.38,0,0,1,.29-.07.37.37,0,0,0-.23.12.62.62,0,0,0-.12.19,1,1,0,0,0-.09.42,1,1,0,0,0,.09.43.76.76,0,0,0,.12.19A.42.42,0,0,0,13,18.15Z"/><path class="cls-1" d="M9.1,14.75c0,.45-.26.82-.58.82s-.58-.37-.58-.82.26-.82.58-.82S9.1,14.3,9.1,14.75Z"/><path class="cls-1" d="M8.52,15.65c-.39,0-.69-.4-.69-.9s.3-.9.69-.9.69.39.69.9A.82.82,0,0,1,8.52,15.65Zm0-1.64c-.26,0-.48.34-.48.74s.22.73.48.73.48-.33.48-.73S8.78,14,8.52,14Z"/><path class="cls-2" d="M8.72,15.42a.37.37,0,0,1-.27-.06.58.58,0,0,1-.17-.18.73.73,0,0,1-.12-.42.74.74,0,0,1,.12-.43.55.55,0,0,1,.17-.17.44.44,0,0,1,.27-.07.48.48,0,0,0-.32.28,1.07,1.07,0,0,0-.07.39,1,1,0,0,0,.07.38A.44.44,0,0,0,8.72,15.42Z"/><ellipse class="cls-1" cx="8.52" cy="17.23" rx="0.58" ry="0.82"/><path class="cls-1" d="M8.52,18.13c-.39,0-.69-.39-.69-.9s.3-.9.69-.9a.82.82,0,0,1,.69.9C9.21,17.74,8.9,18.13,8.52,18.13Zm0-1.63c-.26,0-.48.33-.48.73s.22.74.48.74.48-.34.48-.74S8.78,16.5,8.52,16.5Z"/><path class="cls-2" d="M8.72,17.91a.44.44,0,0,1-.27-.07.55.55,0,0,1-.17-.17.74.74,0,0,1-.12-.43.73.73,0,0,1,.12-.42.58.58,0,0,1,.17-.18.43.43,0,0,1,.27-.06.46.46,0,0,0-.32.28,1,1,0,0,0-.07.38,1.07,1.07,0,0,0,.07.39A.48.48,0,0,0,8.72,17.91Z"/><path class="cls-2" d="M15.94,20.08l.58,0h.57c.39,0,.77,0,1.15,0-.38,0-.76,0-1.15,0h-.57Z"/><path class="cls-2" d="M20.71,16.43l.68,0h1.34l.68,0c-.23,0-.45,0-.68,0H21.39C21.16,16.46,20.94,16.45,20.71,16.43Z"/><path class="cls-2" d="M18.18,12.87c.26,0,.52,0,.79,0h1.57l.78,0-.78,0H19Z"/><path class="cls-2" d="M15.62,10.05c.23,0,.45,0,.68,0h1.34c.23,0,.45,0,.68,0l-.68,0H16.3Z"/><path class="cls-2" d="M22.49,20.08l.72,0h1.43l.72,0q-.36,0-.72,0H23.21Q22.85,20.11,22.49,20.08Z"/><path class="cls-2" d="M24.59,23.5l.65,0h1.3l.65,0c-.22,0-.43,0-.65,0h-1.3Z"/><path class="cls-2" d="M14.22,22.34l.51,0h.51c.35,0,.69,0,1,0-.34,0-.68,0-1,0h-.51Z"/></svg>