<svg id="Layer_1" data-name="Layer 1" xmlns="http://www.w3.org/2000/svg" viewBox="0 0 152 120"><defs><style>.cls-1,.cls-3{fill:#ef8506;}.cls-2{fill:#fff;}.cls-3{font-size:28.57px;font-family:KronaOne-Regular, Krona One;}</style></defs><path class="cls-1" d="M105.9,91.41a43.77,43.77,0,0,0,2.21-13.88A40.55,40.55,0,0,0,100,52.59c-5.26-6.74-12.29-10.45-19.79-10.45a22.46,22.46,0,0,0-6.58,1,22.4,22.4,0,0,0-6.57-1,23.19,23.19,0,0,0-12.89,4l-.21.12h0a29.63,29.63,0,0,0-6.71,6.34,40.53,40.53,0,0,0-8.08,24.94,40.53,40.53,0,0,0,8.08,24.94,29.55,29.55,0,0,0,6.76,6.37l-.06.07c.33.19.67.37,1,.55a23.11,23.11,0,0,0,12.08,3.46,22.4,22.4,0,0,0,6.57-1,22.46,22.46,0,0,0,6.58,1c7.5,0,14.53-3.71,19.79-10.45a33.8,33.8,0,0,0,2-2.85h.13l6.07-.08c1.66,0,3.34-.12,5-.06.58,0,3-.2,3.13-.19C111.17,98.5,108.13,95.14,105.9,91.41ZM49.5,97.24c-2.42-1.31-4.16-4.88-4.16-9.1s1.74-7.78,4.16-9.09a3.27,3.27,0,0,1,.7-.08h0a21.4,21.4,0,0,0,4.18,12c.19.61.4,1.2.62,1.79-1,2.73-2.81,4.61-4.84,4.61A3.27,3.27,0,0,1,49.5,97.24Zm.7-39.5c2,0,3.85,1.88,4.84,4.61-.29.77-.55,1.56-.8,2.36a21.43,21.43,0,0,0-4,11.38H50.2a3.27,3.27,0,0,1-.7-.08c-2.42-1.31-4.16-4.88-4.16-9.09s1.74-7.79,4.16-9.1A3.27,3.27,0,0,1,50.2,57.74Zm12.26,50.92c-2.77-1.38-4.76-5.06-4.76-9.4,0-.27,0-.55,0-.82a34.17,34.17,0,0,0,2.71,4,30,30,0,0,0,5.68,5.6,5,5,0,0,1-2.55.74A4.57,4.57,0,0,1,62.46,108.66ZM57.7,55.8c0-4.34,2-8,4.76-9.4a4.57,4.57,0,0,1,1.11-.15,5,5,0,0,1,2.55.74,30,30,0,0,0-5.68,5.6,34.17,34.17,0,0,0-2.71,4C57.71,56.35,57.7,56.07,57.7,55.8ZM78.26,99.47a8.45,8.45,0,0,1-3.42-3.21,12.13,12.13,0,0,0,6.93-3.15,11.84,11.84,0,0,1,1.53,5.16,5.85,5.85,0,0,1-3.68,1.38A5.13,5.13,0,0,1,78.26,99.47Zm-8.07-.21c0,.35,0,.69,0,1,0-.34,0-.68,0-1s0-.69,0-1C70.17,98.57,70.19,98.92,70.19,99.26Zm0-43.46c0,.34,0,.69,0,1,0-.33,0-.68,0-1s0-.69,0-1C70.17,55.11,70.19,55.45,70.19,55.8Zm9.43-.39a5.85,5.85,0,0,1,3.68,1.38,12.91,12.91,0,0,1-.55,2.92,9.09,9.09,0,0,0-3-.5H75.5c-.28,0-.56-.08-.84-.1a8.51,8.51,0,0,1,3.6-3.52A5.57,5.57,0,0,1,79.62,55.41ZM63.35,57.74a4.11,4.11,0,0,1,2.86,1.33H64.44a11.33,11.33,0,0,0-4.84,1.11A4.73,4.73,0,0,1,63.35,57.74Zm1.09,38.58h1.4a3.85,3.85,0,0,1-2.49,1A4.43,4.43,0,0,1,60,95.38,11.21,11.21,0,0,0,64.44,96.32ZM86.06,61.43c0-.13.08-.27.13-.39q.12.3.21.6Zm-.68,27.93c0-.31,0-.61,0-.91a20.41,20.41,0,0,0,1.16-2.55A14.25,14.25,0,0,1,87,89.36,13.5,13.5,0,0,1,86.19,94,13.74,13.74,0,0,1,85.38,89.36Zm7.39-33.95c4.07,0,7.38,4.62,7.38,10.29a11.79,11.79,0,0,1-3.33,8.61c-.75-1.22-1.53-2.43-2.37-3.6a40.32,40.32,0,0,0-4.94-14.23A5.72,5.72,0,0,1,92.77,55.41Zm.1,35.65A25.48,25.48,0,0,0,97,97.75a6.07,6.07,0,0,1-4.26,1.9,5.72,5.72,0,0,1-3.26-1.07A38.36,38.36,0,0,0,92.87,91.06Z"/><path class="cls-1" d="M80.24,113.64a23.13,23.13,0,0,1-6.58-1,23,23,0,0,1-6.57,1,23.63,23.63,0,0,1-12.43-3.56c-.35-.17-.69-.36-1-.55l-.79-.45L53,109a30.63,30.63,0,0,1-6.23-6,41.3,41.3,0,0,1-8.24-25.39,41.27,41.27,0,0,1,8.24-25.39,30.34,30.34,0,0,1,6.17-6l-.06-.06.79-.47.13-.08.07,0a24,24,0,0,1,13.26-4.09,23,23,0,0,1,6.57,1,23.13,23.13,0,0,1,6.58-1c7.72,0,15,3.81,20.36,10.72a41.29,41.29,0,0,1,8.23,25.39,44.26,44.26,0,0,1-2.15,13.79c2.71,4.4,5.74,6.64,9.77,7.25l-.1.72V100l-.66,0c-1.09.08-2.09.15-2.48.13-1.08,0-2.2,0-3.29,0l-1.67,0-5.81.07c-.59.92-1.21,1.79-1.83,2.6C95.19,109.83,88,113.64,80.24,113.64Zm-6.58-2.46.21.07a22,22,0,0,0,6.37,1c7.27,0,14.1-3.61,19.23-10.17.67-.86,1.32-1.8,2-2.79l.19-.31.54,0,6.07-.08c.55,0,1.1,0,1.65,0,.77,0,1.55,0,2.34,0a17.37,17.37,0,0,1-6.93-7l-.17-.28.11-.32a43.07,43.07,0,0,0,2.18-13.65A39.82,39.82,0,0,0,99.47,53c-5.13-6.56-12-10.17-19.23-10.17a22,22,0,0,0-6.37,1l-.21.07-.21-.07a21.93,21.93,0,0,0-6.36-1A22.33,22.33,0,0,0,54.6,46.72l-.2.13A28.84,28.84,0,0,0,47.86,53a39.82,39.82,0,0,0-7.93,24.5A39.82,39.82,0,0,0,47.86,102a29,29,0,0,0,6.59,6.21l.7.47h0l.19.1.05,0a22.24,22.24,0,0,0,11.71,3.36,21.93,21.93,0,0,0,6.36-1Zm-10.09-1.65a5.5,5.5,0,0,1-1.28-.17l-.15,0c-3.08-1.55-5.16-5.58-5.16-10,0-.29,0-.57,0-.86L57.15,96l1.2,2.07A33.64,33.64,0,0,0,61,102a29.23,29.23,0,0,0,5.54,5.47l.85.63-.91.56A5.66,5.66,0,0,1,63.57,109.53ZM62.71,108a3.68,3.68,0,0,0,2-.07,30.73,30.73,0,0,1-4.87-5c-.46-.59-.9-1.2-1.33-1.83C59,104.22,60.55,106.86,62.71,108Zm30.06-7.61a6.44,6.44,0,0,1-3.67-1.19l-.54-.38.33-.58a37.5,37.5,0,0,0,3.29-7.38l.55-1.68.78,1.59c1.47,3,2.65,5.11,4,6.49l.51.51-.52.51A6.73,6.73,0,0,1,92.77,100.37Zm-2.29-2A4.85,4.85,0,0,0,96,97.7a23.53,23.53,0,0,1-3-4.8A39.62,39.62,0,0,1,90.48,98.34Zm-10.86,2a6.45,6.45,0,0,1-1.54-.2l-.13,0a9.15,9.15,0,0,1-3.72-3.48l-.61-1,1.15-.11a11.44,11.44,0,0,0,6.52-3L82,92l.44.75A12.73,12.73,0,0,1,84,98.22l0,.37-.29.24A6.56,6.56,0,0,1,79.62,100.37Zm-1.11-1.58a4.39,4.39,0,0,0,1.11.14,5.06,5.06,0,0,0,2.93-1,11.61,11.61,0,0,0-1-3.71A13,13,0,0,1,76.1,96.8,7.27,7.27,0,0,0,78.51,98.79Zm-7.65,1.55H69.43c0-.38,0-.73,0-1.08s0-.7,0-1.08h1.43c0,.37,0,.73,0,1.08S70.89,100,70.86,100.34ZM63.35,98a5.17,5.17,0,0,1-4-2.22l-1.76-2.23,2.61,1.13a10.49,10.49,0,0,0,4.2.89h3.38L66.3,96.88A4.61,4.61,0,0,1,63.35,98ZM50.2,98a3.9,3.9,0,0,1-.85-.1l-.1,0-.09,0c-2.72-1.46-4.54-5.37-4.54-9.73s1.82-8.26,4.54-9.72l.09,0,.1,0a3.9,3.9,0,0,1,.85-.1h.12l.65,0v.65a20.7,20.7,0,0,0,4,11.55l.08.1,0,.12c.19.59.39,1.18.61,1.76l.09.25-.09.24C54.58,96.09,52.47,98,50.2,98Zm-.45-1.48a2.57,2.57,0,0,0,.45,0c1.59,0,3.14-1.48,4.07-3.89-.18-.48-.34-1-.5-1.45a22.12,22.12,0,0,1-4.19-11.42c-2.12,1.33-3.52,4.61-3.52,8.3S47.54,95.3,49.75,96.56Zm36.44-.45-.67-1.84a14.13,14.13,0,0,1-.86-4.91c0-.32,0-.64,0-1v-.15l.07-.14a19.22,19.22,0,0,0,1.11-2.46l.8-2.14.57,2.21a14.62,14.62,0,0,1-.39,8.55Zm-.07-7.46c0,.23,0,.47,0,.71A14.12,14.12,0,0,0,86.19,91a14.14,14.14,0,0,0,.1-1.59c0-.32,0-.64,0-1ZM50.2,76.81a3.9,3.9,0,0,1-.85-.1l-.1,0-.09,0c-2.72-1.46-4.54-5.37-4.54-9.72s1.82-8.27,4.54-9.73l.09,0,.1,0a3.84,3.84,0,0,1,.85-.1c2.27,0,4.38,1.95,5.51,5.09l.09.24-.09.25c-.26.71-.52,1.46-.78,2.32l0,.12-.07.1a20.81,20.81,0,0,0-3.84,11l0,.65-.65,0Zm-.45-18.3c-2.21,1.26-3.69,4.62-3.69,8.41s1.41,7,3.55,8.32a22.2,22.2,0,0,1,4-10.86c.23-.73.45-1.4.68-2-.93-2.41-2.48-3.89-4.07-3.89A1.93,1.93,0,0,0,49.75,58.51ZM96.66,75.43l-.46-.75c-.78-1.3-1.55-2.46-2.33-3.55L93.76,71l0-.18a39.25,39.25,0,0,0-4.85-14l-.33-.58.54-.38a6.44,6.44,0,0,1,3.67-1.19c4.47,0,8.1,4.94,8.1,11a12.48,12.48,0,0,1-3.57,9.14Zm-1.53-5c.61.85,1.21,1.75,1.81,2.71a11.43,11.43,0,0,0,2.5-7.44c0-5.28-3-9.57-6.67-9.57a4.88,4.88,0,0,0-2.29.59A41,41,0,0,1,95.13,70.43Zm-7.47-7.15L85.2,61.74l.17-.54.15-.41L86.2,59l.67,1.83c.07.21.15.42.22.64Zm-30.1-1.34L59,59.78A5.4,5.4,0,0,1,63.35,57a4.81,4.81,0,0,1,3.37,1.55L68,59.79H64.44a10.57,10.57,0,0,0-4.54,1Zm25.66-1.31-.7-.24a8.27,8.27,0,0,0-2.72-.46H75.39c-.26,0-.52-.07-.79-.09l-1.13-.1.57-1A9.28,9.28,0,0,1,78,54.94l.13,0a6.45,6.45,0,0,1,1.54-.2,6.56,6.56,0,0,1,4.13,1.54l.29.24,0,.37a13.75,13.75,0,0,1-.58,3.08Zm-7.3-2.14H79.8a9.83,9.83,0,0,1,2.46.32,13.4,13.4,0,0,0,.29-1.68,5,5,0,0,0-2.93-1,4.39,4.39,0,0,0-1.11.14A7.42,7.42,0,0,0,75.92,58.49Zm-18.77.56L57,56.66c0-.29,0-.57,0-.86,0-4.47,2.08-8.5,5.16-10l.15-.06a5.5,5.5,0,0,1,1.28-.17,5.58,5.58,0,0,1,2.92.85l.91.55-.85.64A28.88,28.88,0,0,0,61,53,33.64,33.64,0,0,0,58.35,57Zm5.56-12C60.55,48.2,59,50.84,58.55,54c.43-.63.87-1.24,1.33-1.83a31.15,31.15,0,0,1,4.87-5A3.68,3.68,0,0,0,62.71,47.08Zm8.15,9.8H69.43c0-.38,0-.73,0-1.08s0-.7,0-1.08h1.43c0,.37,0,.73,0,1.08S70.89,56.51,70.86,56.88Z"/><path class="cls-1" d="M80.24,42.59c-15.08,0-27.31,15.64-27.31,34.94s12.23,34.94,27.31,34.94,27.3-15.64,27.3-34.94S95.32,42.59,80.24,42.59ZM92.77,55c4.39,0,8,4.81,8,10.74s-3.57,10.75-8,10.75-8-4.81-8-10.75S88.37,55,92.77,55ZM63.35,57.29c3.42,0,6.19,4.31,6.19,9.63s-2.77,9.62-6.19,9.62-6.18-4.31-6.18-9.62S59.94,57.29,63.35,57.29Zm0,40.48c-3.41,0-6.18-4.31-6.18-9.63s2.77-9.62,6.18-9.62,6.19,4.31,6.19,9.62S66.77,97.77,63.35,97.77Zm13.37,11.49c-4,0-7.18-4.48-7.18-10s3.21-10,7.18-10,7.19,4.48,7.19,10S80.69,109.26,76.72,109.26Zm0-43.46c-4,0-7.18-4.48-7.18-10s3.21-10,7.18-10,7.19,4.48,7.19,10S80.69,65.8,76.72,65.8Zm16,34.3c-4.4,0-8-4.81-8-10.74s3.56-10.75,8-10.75,8,4.81,8,10.75S97.16,100.1,92.77,100.1Z"/><path class="cls-1" d="M80.24,112.92c-7.5,0-14.53-3.71-19.8-10.45a40.53,40.53,0,0,1-8.08-24.94,40.55,40.55,0,0,1,8.08-24.94c5.27-6.74,12.3-10.45,19.8-10.45S94.77,45.85,100,52.59a40.55,40.55,0,0,1,8.08,24.94A40.53,40.53,0,0,1,100,102.47C94.77,109.21,87.74,112.92,80.24,112.92Zm0-69.88C65.5,43,53.51,58.51,53.51,77.53S65.5,112,80.24,112,107,96.55,107,77.53,95,43,80.24,43Zm-3.52,66.67c-4.35,0-7.76-4.59-7.76-10.45s3.41-10.45,7.76-10.45,7.76,4.59,7.76,10.45S81.07,109.71,76.72,109.71Zm0-20c-3.64,0-6.61,4.28-6.61,9.54s3,9.55,6.61,9.55,6.62-4.28,6.62-9.55S80.37,89.72,76.72,89.72Zm16,10.84c-4.71,0-8.53-5-8.53-11.2s3.82-11.2,8.53-11.2,8.53,5,8.53,11.2S97.47,100.56,92.77,100.56Zm0-21.5c-4.08,0-7.39,4.62-7.39,10.3s3.31,10.29,7.39,10.29,7.38-4.62,7.38-10.29S96.84,79.06,92.77,79.06ZM63.35,98.22c-3.78,0-6.75-4.42-6.75-10.08s3-10.08,6.75-10.08,6.76,4.43,6.76,10.08S67.14,98.22,63.35,98.22Zm0-19.25c-3,0-5.61,4.2-5.61,9.17s2.57,9.18,5.61,9.18S69,93.12,69,88.14,66.39,79,63.35,79Zm0-2c-3.78,0-6.75-4.43-6.75-10.08s3-10.08,6.75-10.08,6.76,4.42,6.76,10.08S67.14,77,63.35,77Zm0-19.26c-3,0-5.61,4.2-5.61,9.18s2.57,9.17,5.61,9.17S69,71.89,69,66.92,66.39,57.74,63.35,57.74ZM92.77,76.9c-4.71,0-8.53-5-8.53-11.2s3.82-11.19,8.53-11.19,8.53,5,8.53,11.19S97.47,76.9,92.77,76.9Zm0-21.49c-4.08,0-7.39,4.62-7.39,10.29S88.69,76,92.77,76s7.38-4.62,7.38-10.3S96.84,55.41,92.77,55.41Zm-16,10.84C72.37,66.25,69,61.66,69,55.8s3.41-10.45,7.76-10.45,7.76,4.59,7.76,10.45S81.07,66.25,76.72,66.25Zm0-20c-3.64,0-6.61,4.28-6.61,9.55s3,9.55,6.61,9.55,6.62-4.29,6.62-9.55S80.37,46.25,76.72,46.25Z"/><path class="cls-2" d="M78.77,112a22.44,22.44,0,0,0,3.49-.36,22.9,22.9,0,0,0,3.33-.86,24.18,24.18,0,0,0,5.84-3,27.08,27.08,0,0,0,4.65-4.1,32.68,32.68,0,0,0,3.58-4.73,36.38,36.38,0,0,0,2.64-5.11,38.41,38.41,0,0,0,1.8-5.33,39.43,39.43,0,0,0,1.06-5.45,43.7,43.7,0,0,0,0-11,39.43,39.43,0,0,0-1.06-5.45,38.41,38.41,0,0,0-1.8-5.33,37.48,37.48,0,0,0-2.64-5.11,32.68,32.68,0,0,0-3.58-4.73,26.61,26.61,0,0,0-4.65-4.09,24.2,24.2,0,0,0-5.84-3,22.9,22.9,0,0,0-3.33-.86,22.44,22.44,0,0,0-3.49-.36,23,23,0,0,1,3.52.23,22,22,0,0,1,3.42.77A25,25,0,0,1,91.79,47,27.87,27.87,0,0,1,96.68,51a31.34,31.34,0,0,1,3.77,4.77,37.17,37.17,0,0,1,4.71,10.57,42.46,42.46,0,0,1,0,22.3,37.17,37.17,0,0,1-4.71,10.57A32,32,0,0,1,96.68,104a27.87,27.87,0,0,1-4.89,4.08A25,25,0,0,1,85.71,111a22,22,0,0,1-3.42.77A23,23,0,0,1,78.77,112Z"/><path class="cls-1" d="M94.34,70.54A42.16,42.16,0,0,0,90.5,66a4,4,0,0,0-.09-1c-.32-1.08-3.9-3.39-6.39-4.74a8.82,8.82,0,0,0-4.22-1H75.5a10.76,10.76,0,0,0-1.71-.14H64.44c-7.86,0-14.24,8.34-14.24,18.63s6.38,18.62,14.24,18.62h9.35c7,0,12.82-6.6,14-15.31,6.2,11.11,7.7,19.32,14.36,18.6l6.07-.08c1.66,0,3.34-.12,5-.06.58,0,3-.2,3.13-.19-8.24-1.24-11.07-9-13.86-14.41C100,80,97.62,75.08,94.34,70.54Z"/><path class="cls-2" d="M69.3,94.67a11.64,11.64,0,0,1-1.09.48h1.44a8.13,8.13,0,0,0,.86-.48Z"/><path class="cls-2" d="M76.3,86.68c-.1.22-.19.44-.3.66h.76l.28-.66Z"/><path class="cls-2" d="M75.73,87.89c-.11.22-.22.43-.34.64h.76c.12-.21.23-.42.34-.64Z"/><path class="cls-2" d="M75.06,89.08c-.12.21-.26.41-.39.61h.79c.13-.2.26-.4.38-.61Z"/><path class="cls-2" d="M77.51,83c-.05.24-.11.47-.17.7h.71c.06-.23.12-.46.17-.7Z"/><path class="cls-2" d="M77.76,81.69c0,.24-.08.48-.13.72h.71c0-.24.09-.48.13-.72Z"/><path class="cls-2" d="M74.29,90.25l-.28.38-.17.21h.83l.43-.59Z"/><path class="cls-2" d="M77.94,80.41c0,.24-.06.49-.09.73h.7c0-.24.07-.49.1-.73Z"/><path class="cls-2" d="M77.18,84.22c-.06.23-.13.46-.21.68h.73c.07-.22.14-.45.2-.68Z"/><path class="cls-2" d="M76.78,85.46c-.08.22-.16.45-.25.67h.73c.09-.22.17-.45.25-.67Z"/><path class="cls-2" d="M73.39,91.39q-.26.3-.51.57h.87q.24-.27.48-.57Z"/><path class="cls-2" d="M74,64.77l.1.14h.81c-.1-.15-.2-.29-.31-.43l0-.06h-.82Z"/><path class="cls-2" d="M72.32,92.51q-.3.28-.6.54h.94c.19-.17.38-.35.56-.54Z"/><path class="cls-2" d="M72.85,63.42l.42.45h.85a5.82,5.82,0,0,0-.4-.45Z"/><path class="cls-2" d="M71.83,62.44l.46.42h.91l-.44-.42Z"/><path class="cls-2" d="M74.51,65.46c.12.17.23.34.34.52h.78c-.1-.18-.22-.35-.33-.52Z"/><path class="cls-2" d="M75.19,66.53c.11.18.21.36.31.55h.76c-.09-.19-.19-.37-.29-.55Z"/><path class="cls-2" d="M75.8,67.63c.09.2.19.39.28.59h.74c-.08-.2-.18-.39-.27-.59Z"/><path class="cls-2" d="M66.65,59.68A11.26,11.26,0,0,1,68,60h1.14c-.27-.12-.78-.23-1.05-.34Z"/><path class="cls-2" d="M76.32,68.77c.09.2.17.41.25.62h.74c-.08-.21-.16-.42-.25-.62Z"/><path class="cls-2" d="M76.79,69.94c.07.22.15.44.22.66h.72c-.07-.22-.14-.44-.22-.66Z"/><path class="cls-2" d="M77.94,75c0,.26.06.53.08.8h.7c0-.27,0-.54-.07-.8Z"/><path class="cls-2" d="M77.75,73.68c0,.25.09.51.12.76h.71l-.12-.76Z"/><path class="cls-2" d="M77.17,71.15c.07.23.13.46.19.69h.72c-.06-.23-.12-.46-.19-.69Z"/><path class="cls-2" d="M77.5,72.39c.06.25.11.49.15.73h.72c-.05-.24-.1-.48-.16-.73Z"/><path class="cls-2" d="M78.05,79.12c0,.25,0,.49-.06.74h.71c0-.25,0-.49,0-.74Z"/><path class="cls-2" d="M79,72.76c.46,0,.91-.06,1.36-.07s.91,0,1.36,0c.91,0,1.81,0,2.72.09-.91.07-1.81.09-2.72.09l-1.36,0C79.94,72.81,79.49,72.8,79,72.76Z"/><polygon class="cls-2" points="75.73 65.37 77.66 65.28 77.66 65.46 75.73 65.37"/><path class="cls-2" d="M93.13,89.42c.09.18.17.35.26.52h1c-.08-.17-.17-.34-.25-.52Z"/><path class="cls-2" d="M93.74,90.66l.24.47h1l-.24-.47Z"/><path class="cls-2" d="M94.34,91.85c.07.15.15.3.23.45h1l-.23-.45Z"/><path class="cls-2" d="M94.94,93c.08.15.15.3.23.44h1L96,93Z"/><path class="cls-2" d="M91.85,86.81l.31.62h1l-.3-.62Z"/><path class="cls-2" d="M90.39,83.93l.39.76h1c-.13-.25-.26-.51-.4-.76Z"/><path class="cls-2" d="M91.15,85.41l.34.69h1l-.34-.69Z"/><path class="cls-2" d="M97.89,97.59l.43.46h1.26a5.34,5.34,0,0,1-.5-.46Z"/><path class="cls-2" d="M101.14,99a7.74,7.74,0,0,1-1-.37h-1a2.07,2.07,0,0,0,1.09.37Z"/><path class="cls-2" d="M92.78,88.71h1l0,0-.25-.51h-1Z"/><path class="cls-2" d="M89.56,82.36l.45.85h1l-.45-.85Z"/><path class="cls-2" d="M96.24,95.3c.08.15.17.29.26.43h1.07l-.28-.43Z"/><path class="cls-2" d="M95.56,94.16c.08.15.17.29.25.43h1c-.09-.14-.17-.28-.25-.43Z"/><path class="cls-2" d="M97,96.44c.11.15.21.3.32.44h1.12l-.34-.44Z"/><path class="cls-2" d="M84.27,73.77l.65.93H86l-.64-.93Z"/><path class="cls-2" d="M76,64l.51.52H77.7c-.16-.18-.33-.35-.5-.52Z"/><path class="cls-2" d="M74.81,62.77l.48.47h1.2L76,62.77Z"/><path class="cls-2" d="M77.21,65.18l.54.57h1.17l-.54-.57Z"/><path class="cls-2" d="M71.2,59.51l.38.33h1.27l-.38-.33Z"/><path class="cls-2" d="M78.41,66.47c.19.21.38.41.56.62h1.15c-.18-.21-.37-.41-.56-.62Z"/><path class="cls-2" d="M73.6,61.64l.45.42h1.23l-.45-.42Z"/><path class="cls-2" d="M72.4,60.55l.41.37h1.25l-.41-.37Z"/><path class="cls-2" d="M83.13,72.18l.63.87h1.08c-.2-.29-.42-.58-.63-.87Z"/><path class="cls-2" d="M86.52,77.14l.66,1.07h1c-.21-.35-.43-.71-.66-1.07Z"/><path class="cls-2" d="M87.61,78.93c.21.35.42.7.62,1h1c-.2-.35-.4-.7-.61-1Z"/><path class="cls-2" d="M85.4,75.42c.23.33.45.67.66,1h1l-.65-1Z"/><path class="cls-2" d="M80.79,69.21l.6.74h1.12l-.6-.74Z"/><path class="cls-2" d="M88.64,80.7l.53.94h1l-.52-.94Z"/><path class="cls-2" d="M79.6,67.81c.2.23.4.45.59.68h1.13l-.58-.68Z"/><path class="cls-2" d="M82,70.66l.63.81h1.09l-.62-.81Z"/><path class="cls-2" d="M103.12,89.42c.1.18.2.35.31.52h1l-.32-.52Z"/><path class="cls-2" d="M101.6,86.81l.36.62h1l-.35-.62Z"/><path class="cls-2" d="M102.36,88.15l.33.56h1c-.11-.19-.23-.38-.33-.56Z"/><path class="cls-2" d="M100,83.93l.41.76h1l-.41-.76Z"/><path class="cls-2" d="M99.22,82.36l.44.85h1l-.45-.85Z"/><path class="cls-2" d="M100.83,85.41l.38.69h1c-.12-.24-.25-.46-.38-.69Z"/><path class="cls-2" d="M97.41,78.93c.19.35.38.7.56,1h1l-.56-1Z"/><path class="cls-2" d="M107.35,95.73h.89l.14-.07-.26-.36H107Z"/><path class="cls-2" d="M106.2,94.16c.1.14.2.29.31.43h1.07l-.3-.43Z"/><path class="cls-2" d="M98.77,81.5l.07.14h1c-.08-.14-.15-.28-.22-.42s-.19-.35-.28-.52h-1Z"/><path class="cls-2" d="M104.63,91.85l.29.45H106l-.31-.45Z"/><path class="cls-2" d="M105.4,93l.3.44h1.07l-.3-.44Z"/><path class="cls-2" d="M103.87,90.66l.3.47h1l-.3-.47Z"/><path class="cls-2" d="M91.28,69.21c.2.24.39.49.58.74H93c-.18-.25-.37-.5-.57-.74Z"/><path class="cls-2" d="M86.94,63.24H85.7c-.19-.16-.38-.32-.58-.47h1.21C86.54,62.92,86.74,63.08,86.94,63.24Z"/><path class="cls-2" d="M88.17,64.47H87L86.51,64h1.06C87.78,64.12,88,64.29,88.17,64.47Z"/><path class="cls-2" d="M85.36,62.05H84.17l-.59-.41h1.17Z"/><path class="cls-2" d="M89.32,65.75H88.1c-.13-.19-.28-.38-.43-.57h1Z"/><path class="cls-2" d="M84.14,60.92H82.61l-.21-.06h0l-.49-.31H83.3Z"/><path class="cls-2" d="M82.56,60H81.18l-.74-.32h1.21Z"/><path class="cls-2" d="M90.09,67.81l.6.68h1.13c-.19-.23-.38-.46-.58-.68Z"/><path class="cls-2" d="M94.49,73.77c.19.31.38.62.56.93h1c-.18-.31-.37-.62-.56-.93Z"/><path class="cls-2" d="M95.48,75.42l.57,1h1l-.56-1Z"/><path class="cls-2" d="M88.83,66.47c.2.2.41.41.6.62h1.18c-.19-.21-.39-.42-.59-.62Z"/><path class="cls-2" d="M93.46,72.18c.2.29.39.58.58.87h1l-.56-.87Z"/><path class="cls-2" d="M96.45,77.14,97,78.21h1l-.58-1.07Z"/><path class="cls-2" d="M92.4,70.66l.58.81h1.07c-.19-.27-.37-.54-.57-.81Z"/><path class="cls-2" d="M80.27,92.9l-.64.52,1,0c.2-.16.4-.34.59-.52Z"/><path class="cls-2" d="M81.41,91.8c-.18.2-.36.38-.55.56l.88,0c.18-.18.35-.36.52-.55Z"/><path class="cls-2" d="M83.23,89.54l-.42.6.79,0c.15-.2.29-.4.42-.61Z"/><path class="cls-2" d="M82.39,90.68c-.16.2-.32.39-.49.58l.83,0,.47-.58Z"/><path class="cls-2" d="M78.34,95c-.3.17-.71.32-1,.46h-1A4.85,4.85,0,0,0,77.43,95Z"/><path class="cls-2" d="M79.91,94c-.23.18-.46.34-.7.5l-.84,0c.24-.17.44-.33.65-.49Z"/><path class="cls-2" d="M86.41,82.22l-.18.71.71,0,.18-.71Z"/><path class="cls-2" d="M86.07,83.48l-.21.7h.72l.21-.69Z"/><path class="cls-2" d="M84,88.36,83.6,89l.77,0c.13-.21.25-.42.37-.63Z"/><path class="cls-2" d="M84.63,87.17l-.34.65H85c.11-.21.23-.42.33-.64Z"/><path class="cls-2" d="M85.19,86l-.3.66.74,0c.1-.22.2-.44.29-.66Z"/><path class="cls-2" d="M85.67,84.73c-.08.23-.17.45-.26.68l.73,0c.09-.23.17-.46.25-.69Z"/><path class="cls-2" d="M64.44,95c-3.19,0-6.25-1.71-8.62-4.82A20.52,20.52,0,0,1,51.89,77.7a20.52,20.52,0,0,1,3.93-12.48c2.37-3.11,5.43-4.82,8.62-4.82s6.25,1.71,8.63,4.82a21.78,21.78,0,0,1,0,25C70.69,93.29,67.63,95,64.44,95Zm0-34.3c-3,0-6,1.66-8.3,4.67A20.33,20.33,0,0,0,52.27,77.7,20.33,20.33,0,0,0,56.14,90c2.3,3,5.25,4.67,8.3,4.67s6-1.66,8.3-4.67A20.33,20.33,0,0,0,76.61,77.7a20.33,20.33,0,0,0-3.87-12.33C70.44,62.36,67.49,60.7,64.44,60.7Z"/><path class="cls-2" d="M64.44,93.52c-2.51,0-5-1.46-7-4.1A19.34,19.34,0,0,1,53.76,77.7,19.34,19.34,0,0,1,57.42,66c2-2.64,4.51-4.1,7-4.1s5,1.46,7,4.1A19.34,19.34,0,0,1,75.12,77.7a19.34,19.34,0,0,1-3.66,11.72C69.44,92.06,67,93.52,64.44,93.52Zm0-31.34c-2.37,0-4.74,1.41-6.69,4A19,19,0,0,0,54.14,77.7a19,19,0,0,0,3.61,11.56c2,2.55,4.32,4,6.69,4s4.75-1.41,6.69-4A19,19,0,0,0,74.74,77.7a19.07,19.07,0,0,0-3.61-11.57C69.19,63.59,66.81,62.18,64.44,62.18Z"/><path class="cls-2" d="M64.44,92c-1.8,0-3.77-1.23-5.41-3.38a18,18,0,0,1-3.39-11,18,18,0,0,1,3.39-11c1.64-2.15,3.61-3.38,5.41-3.38s3.77,1.23,5.42,3.38a18.11,18.11,0,0,1,3.39,11,18.11,18.11,0,0,1-3.39,11C68.21,90.81,66.24,92,64.44,92Zm0-28.38c-1.66,0-3.51,1.18-5.09,3.24A17.81,17.81,0,0,0,56,77.7a17.81,17.81,0,0,0,3.33,10.8c1.58,2.06,3.43,3.24,5.09,3.24S68,90.56,69.53,88.5a17.81,17.81,0,0,0,3.33-10.8,17.81,17.81,0,0,0-3.33-10.8C68,64.84,66.1,63.66,64.44,63.66Z"/><path class="cls-2" d="M64.44,90.56c-.85,0-2.3-.7-3.81-2.67A16.82,16.82,0,0,1,57.51,77.7a16.82,16.82,0,0,1,3.12-10.19c1.51-2,3-2.67,3.81-2.67s2.31.7,3.81,2.67A16.82,16.82,0,0,1,71.37,77.7a16.82,16.82,0,0,1-3.12,10.19C66.75,89.86,65.3,90.56,64.44,90.56Zm0-25.42c-.58,0-2,.53-3.48,2.52a16.55,16.55,0,0,0-3.07,10,16.55,16.55,0,0,0,3.07,10c1.52,2,2.9,2.52,3.48,2.52s2-.53,3.48-2.52A16.55,16.55,0,0,0,71,77.7a16.55,16.55,0,0,0-3.07-10C66.4,65.67,65,65.14,64.44,65.14Z"/><path class="cls-2" d="M79.62,80.92c.5,0,1-.06,1.49-.07s1,0,1.5,0c1,0,2,0,3,.09-1,.07-2,.09-3,.09l-1.5,0C80.62,81,80.12,81,79.62,80.92Z"/><path class="cls-1" d="M68.4,42.59c-15-1.18-27.3,15.64-27.3,34.94s12.3,36.14,27.3,34.94C83,111.3,94.08,96.83,94.08,77.53S83.3,43.76,68.4,42.59ZM80.93,55c4.4,0,8,4.81,8,10.74s-3.56,10.75-8,10.75-8-4.81-8-10.75S76.54,55,80.93,55ZM51.52,57.29c3.41,0,6.18,4.31,6.18,9.63s-2.77,9.62-6.18,9.62-6.18-4.31-6.18-9.62S48.1,57.29,51.52,57.29Zm0,40.48c-3.42,0-6.18-4.31-6.18-9.63s2.76-9.62,6.18-9.62,6.18,4.31,6.18,9.62S54.93,97.77,51.52,97.77Zm13.37,11.49c-4,0-7.19-4.48-7.19-10s3.22-10,7.19-10,7.19,4.48,7.19,10S68.86,109.26,64.89,109.26Zm0-43.46c-4,0-7.19-4.48-7.19-10s3.22-10,7.19-10,7.19,4.48,7.19,10S68.86,65.8,64.89,65.8Zm16,34.3c-4.39,0-8-4.81-8-10.74s3.57-10.75,8-10.75,8,4.81,8,10.75S85.33,100.1,80.93,100.1Z"/><path class="cls-2" d="M67.09,42.59C52,42.59,39.78,58.23,39.78,77.53S52,112.47,67.09,112.47s27.3-15.64,27.3-34.94S82.17,42.59,67.09,42.59ZM79.62,55c4.39,0,8,4.81,8,10.74s-3.57,10.75-8,10.75-8-4.81-8-10.75S75.22,55,79.62,55ZM50.2,57.29c3.42,0,6.18,4.31,6.18,9.63s-2.76,9.62-6.18,9.62S44,72.23,44,66.92,46.79,57.29,50.2,57.29Zm0,40.48c-3.41,0-6.18-4.31-6.18-9.63s2.77-9.62,6.18-9.62,6.18,4.31,6.18,9.62S53.62,97.77,50.2,97.77Zm13.37,11.49c-4,0-7.19-4.48-7.19-10s3.22-10,7.19-10,7.19,4.48,7.19,10S67.54,109.26,63.57,109.26Zm0-43.46c-4,0-7.19-4.48-7.19-10s3.22-10,7.19-10,7.19,4.48,7.19,10S67.54,65.8,63.57,65.8Zm16.05,34.3c-4.4,0-8-4.81-8-10.74s3.56-10.75,8-10.75,8,4.81,8,10.75S84,100.1,79.62,100.1Z"/><path class="cls-1" d="M67.09,112.92c-7.5,0-14.53-3.71-19.8-10.45a40.53,40.53,0,0,1-8.08-24.94,40.53,40.53,0,0,1,8.08-24.94c5.27-6.74,12.3-10.45,19.8-10.45s14.53,3.71,19.79,10.45A40.55,40.55,0,0,1,95,77.53a40.53,40.53,0,0,1-8.08,24.94C81.62,109.21,74.59,112.92,67.09,112.92Zm0-69.88C52.35,43,40.36,58.51,40.36,77.53S52.35,112,67.09,112,93.82,96.55,93.82,77.53,81.83,43,67.09,43Zm-3.52,66.67c-4.35,0-7.76-4.59-7.76-10.45s3.41-10.45,7.76-10.45,7.76,4.59,7.76,10.45S67.92,109.71,63.57,109.71Zm0-20C59.92,89.72,57,94,57,99.26s3,9.55,6.61,9.55,6.62-4.28,6.62-9.55S67.22,89.72,63.57,89.72Zm16.05,10.84c-4.71,0-8.53-5-8.53-11.2s3.82-11.2,8.53-11.2,8.53,5,8.53,11.2S84.32,100.56,79.62,100.56Zm0-21.5c-4.08,0-7.39,4.62-7.39,10.3s3.31,10.29,7.39,10.29S87,95,87,89.36,83.69,79.06,79.62,79.06ZM50.2,98.22c-3.78,0-6.75-4.42-6.75-10.08s3-10.08,6.75-10.08S57,82.49,57,88.14,54,98.22,50.2,98.22ZM50.2,79c-3,0-5.61,4.2-5.61,9.17s2.57,9.18,5.61,9.18,5.61-4.2,5.61-9.18S53.24,79,50.2,79Zm0-2c-3.78,0-6.75-4.43-6.75-10.08s3-10.08,6.75-10.08S57,61.26,57,66.92,54,77,50.2,77Zm0-19.26c-3,0-5.61,4.2-5.61,9.18s2.57,9.17,5.61,9.17,5.61-4.2,5.61-9.17S53.24,57.74,50.2,57.74ZM79.62,76.9c-4.71,0-8.53-5-8.53-11.2s3.82-11.19,8.53-11.19,8.53,5,8.53,11.19S84.32,76.9,79.62,76.9Zm0-21.49c-4.08,0-7.39,4.62-7.39,10.29S75.54,76,79.62,76,87,71.38,87,65.7,83.69,55.41,79.62,55.41ZM63.57,66.25c-4.35,0-7.76-4.59-7.76-10.45s3.41-10.45,7.76-10.45,7.76,4.59,7.76,10.45S67.92,66.25,63.57,66.25Zm0-20c-3.65,0-6.61,4.28-6.61,9.55s3,9.55,6.61,9.55,6.62-4.29,6.62-9.55S67.22,46.25,63.57,46.25Z"/><path class="cls-1" d="M54.79,108a23.16,23.16,0,0,0,3.75,1.69,23.54,23.54,0,0,0,4.11,1,21.22,21.22,0,0,0,4.29.23,20.6,20.6,0,0,0,4.23-.66,22.16,22.16,0,0,0,7.38-3.6,31,31,0,0,0,3-2.54c.49-.44.94-.91,1.41-1.36s.91-.93,1.4-1.39a22.14,22.14,0,0,1-5.27,5.75,23,23,0,0,1-7.58,4,21.87,21.87,0,0,1-9.12.62A23.71,23.71,0,0,1,54,108.91Z"/><ellipse class="cls-1" cx="63.57" cy="70.23" rx="1.7" ry="2.39"/><path class="cls-1" d="M63.57,72.83c-1.1,0-2-1.14-2-2.6s.87-2.6,2-2.6,2,1.14,2,2.6S64.68,72.83,63.57,72.83Zm0-4.78c-.77,0-1.43,1-1.43,2.18s.66,2.17,1.43,2.17,1.43-1,1.43-2.17S64.35,68.05,63.57,68.05Z"/><path class="cls-2" d="M64,72.16a1.13,1.13,0,0,1-.76-.19,1.86,1.86,0,0,1-.5-.51,2.35,2.35,0,0,1,0-2.47,1.86,1.86,0,0,1,.5-.51,1.19,1.19,0,0,1,.76-.19,1,1,0,0,0-.6.32,1.57,1.57,0,0,0-.33.49,2.78,2.78,0,0,0-.22,1.13A2.73,2.73,0,0,0,63,71.35a1.61,1.61,0,0,0,.33.5A1,1,0,0,0,64,72.16Z"/><path class="cls-1" d="M65.27,84.93c0,1.32-.76,2.39-1.7,2.39s-1.7-1.07-1.7-2.39.76-2.39,1.7-2.39S65.27,83.61,65.27,84.93Z"/><path class="cls-1" d="M63.57,87.53c-1.1,0-2-1.14-2-2.6s.87-2.6,2-2.6,2,1.14,2,2.6S64.68,87.53,63.57,87.53Zm0-4.78c-.77,0-1.43,1-1.43,2.18s.66,2.17,1.43,2.17,1.43-1,1.43-2.17S64.35,82.75,63.57,82.75Z"/><path class="cls-2" d="M64,86.86a1.13,1.13,0,0,1-.76-.19,1.73,1.73,0,0,1-.5-.51,2.3,2.3,0,0,1-.35-1.23,2.36,2.36,0,0,1,.35-1.24,1.86,1.86,0,0,1,.5-.51A1.19,1.19,0,0,1,64,83a1,1,0,0,0-.6.32,1.57,1.57,0,0,0-.33.49,2.78,2.78,0,0,0-.22,1.13A2.73,2.73,0,0,0,63,86.05a1.61,1.61,0,0,0,.33.5A1,1,0,0,0,64,86.86Z"/><path class="cls-1" d="M63.57,81.88c-1.85,0-3.31-1.91-3.31-4.35s1.46-4.35,3.31-4.35,3.31,1.91,3.31,4.35S65.43,81.88,63.57,81.88Zm0-7.95c-1.27,0-2.35,1.65-2.35,3.6s1.08,3.6,2.35,3.6,2.36-1.65,2.36-3.6S64.85,73.93,63.57,73.93Z"/><path class="cls-1" d="M64.44,81.5a2.35,2.35,0,0,1-1.59-.35,3.79,3.79,0,0,1-1.06-1.05,4.78,4.78,0,0,1,0-5.14,3.66,3.66,0,0,1,1.06-1,2.35,2.35,0,0,1,1.59-.35,2.12,2.12,0,0,0-1.19.67,3.51,3.51,0,0,0-.64,1,6.26,6.26,0,0,0,0,4.56,3.48,3.48,0,0,0,.64,1A2.17,2.17,0,0,0,64.44,81.5Z"/><path class="cls-1" d="M70.72,73.56c0,1.3-.76,2.36-1.69,2.36s-1.68-1.06-1.68-2.36.75-2.37,1.68-2.37S70.72,72.25,70.72,73.56Z"/><path class="cls-1" d="M69,76.13c-1.1,0-2-1.13-2-2.57S67.93,71,69,71s2,1.13,2,2.58S70.13,76.13,69,76.13Zm0-4.73c-.77,0-1.41,1-1.41,2.16s.64,2.15,1.41,2.15,1.41-1,1.41-2.15S69.8,71.4,69,71.4Z"/><path class="cls-2" d="M69.57,75.47a1.15,1.15,0,0,1-.75-.18,1.69,1.69,0,0,1-.49-.51,2.32,2.32,0,0,1,0-2.45,1.56,1.56,0,0,1,.49-.5,1.1,1.1,0,0,1,.75-.19A1.08,1.08,0,0,0,69,72a1.69,1.69,0,0,0-.33.49,2.94,2.94,0,0,0,0,2.23,1.69,1.69,0,0,0,.33.49A1.08,1.08,0,0,0,69.57,75.47Z"/><path class="cls-1" d="M70.72,81.2c0,1.31-.76,2.37-1.69,2.37s-1.68-1.06-1.68-2.37.75-2.36,1.68-2.36S70.72,79.9,70.72,81.2Z"/><path class="cls-1" d="M69,83.78c-1.1,0-2-1.13-2-2.58s.85-2.57,2-2.57,2,1.13,2,2.57S70.13,83.78,69,83.78Zm0-4.73c-.77,0-1.41,1-1.41,2.15s.64,2.15,1.41,2.15,1.41-1,1.41-2.15S69.8,79.05,69,79.05Z"/><path class="cls-2" d="M69.57,83.12a1.1,1.1,0,0,1-.75-.19,1.66,1.66,0,0,1-.49-.5A2.3,2.3,0,0,1,68,81.2,2.27,2.27,0,0,1,68.33,80a1.69,1.69,0,0,1,.49-.51,1.1,1.1,0,0,1,.75-.18,1,1,0,0,0-.59.31,1.57,1.57,0,0,0-.33.49,2.94,2.94,0,0,0,0,2.23,1.69,1.69,0,0,0,.33.49A1.08,1.08,0,0,0,69.57,83.12Z"/><path class="cls-1" d="M59.55,74.28c0,1.17-.68,2.12-1.52,2.12s-1.51-1-1.51-2.12.67-2.13,1.51-2.13S59.55,73.1,59.55,74.28Z"/><path class="cls-1" d="M58,76.62c-1,0-1.78-1-1.78-2.34S57,71.94,58,71.94s1.79,1,1.79,2.34S59,76.62,58,76.62Zm0-4.26c-.67,0-1.24.88-1.24,1.92s.57,1.91,1.24,1.91,1.25-.88,1.25-1.91S58.71,72.36,58,72.36Z"/><path class="cls-2" d="M58.54,76a1.08,1.08,0,0,1-.68-.16,1.64,1.64,0,0,1-.45-.46,2,2,0,0,1-.32-1.11,2,2,0,0,1,.32-1.1,1.41,1.41,0,0,1,.45-.46,1,1,0,0,1,.68-.16,1.1,1.1,0,0,0-.8.73,2.4,2.4,0,0,0-.2,1,2.65,2.65,0,0,0,.19,1A1.18,1.18,0,0,0,58.54,76Z"/><ellipse class="cls-1" cx="58.03" cy="80.73" rx="1.52" ry="2.13"/><path class="cls-1" d="M58,83.08c-1,0-1.78-1-1.78-2.35S57,78.39,58,78.39s1.79,1,1.79,2.34S59,83.08,58,83.08Zm0-4.26c-.67,0-1.24.88-1.24,1.91s.57,1.92,1.24,1.92,1.25-.88,1.25-1.92S58.71,78.82,58,78.82Z"/><path class="cls-2" d="M58.54,82.48a1,1,0,0,1-.68-.16,1.48,1.48,0,0,1-.45-.45,2.09,2.09,0,0,1,0-2.22,1.48,1.48,0,0,1,.45-.45,1,1,0,0,1,.68-.16,1.1,1.1,0,0,0-.8.73,2.4,2.4,0,0,0-.2,1,2.65,2.65,0,0,0,.19,1A1.14,1.14,0,0,0,58.54,82.48Z"/><path class="cls-2" d="M77.33,88.14c.5,0,1,0,1.49-.06l1.49,0c1,0,2,0,3,.09-1,.08-2,.09-3,.09-.49,0-1,0-1.49,0S77.83,88.18,77.33,88.14Z"/><path class="cls-2" d="M89.72,78.65c.59,0,1.17-.06,1.75-.07s1.17,0,1.75,0,1.17,0,1.75,0,1.17,0,1.75.07c-.58,0-1.16.06-1.75.08s-1.16,0-1.75,0-1.16,0-1.75,0S90.31,78.69,89.72,78.65Z"/><path class="cls-2" d="M83.14,69.39c.68,0,1.36-.06,2-.08l2,0,2,0c.68,0,1.36,0,2,.08-.68,0-1.36.06-2,.07s-1.36,0-2,0-1.36,0-2,0S83.82,69.43,83.14,69.39Z"/><path class="cls-2" d="M76.49,62.06c.58,0,1.17-.06,1.75-.08s1.17,0,1.75,0,1.17,0,1.75,0,1.17,0,1.75.08c-.58,0-1.17,0-1.75.07s-1.17,0-1.75,0-1.17,0-1.75,0S77.07,62.1,76.49,62.06Z"/><path class="cls-2" d="M94.34,88.14c.62,0,1.24,0,1.86-.07s1.25,0,1.87,0,1.24,0,1.87,0,1.24,0,1.86.07c-.62,0-1.24.06-1.86.08s-1.25,0-1.87,0-1.24,0-1.87,0S95,88.18,94.34,88.14Z"/><path class="cls-2" d="M99.81,97c.56,0,1.12,0,1.68-.07l1.69,0,1.68,0c.57,0,1.13,0,1.69.07-.56,0-1.12.06-1.69.07l-1.68,0-1.69,0C100.93,97.09,100.37,97.07,99.81,97Z"/><path class="cls-2" d="M72.85,94,74.18,94c.44,0,.89,0,1.33,0,.88,0,1.77,0,2.66.09-.89.08-1.78.09-2.66.09-.44,0-.89,0-1.33,0S73.3,94.05,72.85,94Z"/><text class="cls-3" transform="matrix(0.32, -0.95, 0.95, 0.32, 23.45, 75.17)">P</text><text class="cls-3" transform="translate(30.94 52.03) rotate(-43.93)">R</text><text class="cls-3" transform="translate(48.32 35.06) rotate(-17.83)">E</text><text class="cls-3" transform="matrix(0.99, 0.12, -0.12, 0.99, 69.18, 27.93)">V</text><text class="cls-3" transform="matrix(0.91, 0.41, -0.41, 0.91, 91.21, 31.46)">I</text><text class="cls-3" transform="translate(99.34 33.75) rotate(41.61)">E</text><text class="cls-3" transform="translate(117.38 47.01) rotate(72.63)">W</text></svg>